REM DIRINDEX 1\2,1\3,1\4,1\5
REM DIRNAME cjc093,folder01,folder02,folder03,folder04
TITLE ""
FILE "Round-12-292-293.mp3" MP3
  TRACK 01 AUDIO
    TITLE "0:"
    INDEX 01 00:00:00
  TRACK 02 AUDIO
    TITLE "2:cjc093_3231"
    INDEX 01 00:00:01
  TRACK 03 AUDIO
    TITLE "0:"
    INDEX 01 00:01:24
  TRACK 04 AUDIO
    TITLE "3:cjc093_3232"
    INDEX 01 00:01:34
  TRACK 05 AUDIO
    TITLE "0:"
    INDEX 01 00:02:67
  TRACK 06 AUDIO
    TITLE "4:cjc093_3233"
    INDEX 01 00:03:21
  TRACK 07 AUDIO
    TITLE "0:"
    INDEX 01 00:09:63
  TRACK 08 AUDIO
    TITLE "2:cjc093_3234"
    INDEX 01 00:10:74
  TRACK 09 AUDIO
    TITLE "0:"
    INDEX 01 00:12:12
  TRACK 10 AUDIO
    TITLE "3:cjc093_3235"
    INDEX 01 00:12:40
  TRACK 11 AUDIO
    TITLE "0:"
    INDEX 01 00:14:07
  TRACK 12 AUDIO
    TITLE "4:cjc093_3236"
    INDEX 01 00:14:29
  TRACK 13 AUDIO
    TITLE "0:"
    INDEX 01 00:18:07
  TRACK 14 AUDIO
    TITLE "2:cjc093_3237"
    INDEX 01 00:19:18
  TRACK 15 AUDIO
    TITLE "0:"
    INDEX 01 00:20:32
  TRACK 16 AUDIO
    TITLE "3:cjc093_3238"
    INDEX 01 00:20:57
  TRACK 17 AUDIO
    TITLE "0:"
    INDEX 01 00:22:17
  TRACK 18 AUDIO
    TITLE "4:cjc093_3239"
    INDEX 01 00:22:38
  TRACK 19 AUDIO
    TITLE "0:"
    INDEX 01 00:26:28
  TRACK 20 AUDIO
    TITLE "2:cjc093_3240"
    INDEX 01 00:27:41
  TRACK 21 AUDIO
    TITLE "0:"
    INDEX 01 00:28:43
  TRACK 22 AUDIO
    TITLE "3:cjc093_3241"
    INDEX 01 00:29:01
  TRACK 23 AUDIO
    TITLE "0:"
    INDEX 01 00:30:38
  TRACK 24 AUDIO
    TITLE "4:cjc093_3242"
    INDEX 01 00:30:52
  TRACK 25 AUDIO
    TITLE "0:"
    INDEX 01 00:33:66
  TRACK 26 AUDIO
    TITLE "2:cjc093_3243"
    INDEX 01 00:35:06
  TRACK 27 AUDIO
    TITLE "0:"
    INDEX 01 00:36:07
  TRACK 28 AUDIO
    TITLE "3:cjc093_3244"
    INDEX 01 00:36:31
  TRACK 29 AUDIO
    TITLE "0:"
    INDEX 01 00:38:55
  TRACK 30 AUDIO
    TITLE "4:cjc093_3245"
    INDEX 01 00:39:15
  TRACK 31 AUDIO
    TITLE "0:"
    INDEX 01 00:43:01
  TRACK 32 AUDIO
    TITLE "2:cjc093_3246"
    INDEX 01 00:44:11
  TRACK 33 AUDIO
    TITLE "0:"
    INDEX 01 00:45:35
  TRACK 34 AUDIO
    TITLE "3:cjc093_3247"
    INDEX 01 00:45:63
  TRACK 35 AUDIO
    TITLE "0:"
    INDEX 01 00:47:01
  TRACK 36 AUDIO
    TITLE "4:cjc093_3248"
    INDEX 01 00:47:23
  TRACK 37 AUDIO
    TITLE "0:"
    INDEX 01 00:51:40
  TRACK 38 AUDIO
    TITLE "2:cjc093_3249"
    INDEX 01 00:52:51
  TRACK 39 AUDIO
    TITLE "0:"
    INDEX 01 00:54:07
  TRACK 40 AUDIO
    TITLE "3:cjc093_3250"
    INDEX 01 00:54:27
  TRACK 41 AUDIO
    TITLE "0:"
    INDEX 01 00:55:36
  TRACK 42 AUDIO
    TITLE "4:cjc093_3251"
    INDEX 01 00:56:02
  TRACK 43 AUDIO
    TITLE "0:"
    INDEX 01 00:59:18
  TRACK 44 AUDIO
    TITLE "2:cjc093_3252"
    INDEX 01 01:00:31
  TRACK 45 AUDIO
    TITLE "0:"
    INDEX 01 01:01:34
  TRACK 46 AUDIO
    TITLE "3:cjc093_3253"
    INDEX 01 01:01:66
  TRACK 47 AUDIO
    TITLE "0:"
    INDEX 01 01:03:12
  TRACK 48 AUDIO
    TITLE "4:cjc093_3254"
    INDEX 01 01:03:43
  TRACK 49 AUDIO
    TITLE "0:"
    INDEX 01 01:07:14
  TRACK 50 AUDIO
    TITLE "2:cjc093_3255"
    INDEX 01 01:08:27
  TRACK 51 AUDIO
    TITLE "0:"
    INDEX 01 01:09:44
  TRACK 52 AUDIO
    TITLE "3:cjc093_3256"
    INDEX 01 01:09:71
  TRACK 53 AUDIO
    TITLE "0:"
    INDEX 01 01:12:44
  TRACK 54 AUDIO
    TITLE "4:cjc093_3257"
    INDEX 01 01:12:66
  TRACK 55 AUDIO
    TITLE "0:"
    INDEX 01 01:17:06
  TRACK 56 AUDIO
    TITLE "2:cjc093_3258"
    INDEX 01 01:18:23
  TRACK 57 AUDIO
    TITLE "0:"
    INDEX 01 01:19:36
  TRACK 58 AUDIO
    TITLE "3:cjc093_3259"
    INDEX 01 01:20:00
  TRACK 59 AUDIO
    TITLE "0:"
    INDEX 01 01:22:27
  TRACK 60 AUDIO
    TITLE "4:cjc093_3260"
    INDEX 01 01:23:03
  TRACK 61 AUDIO
    TITLE "0:"
    INDEX 01 01:26:19
